<svg width="27" height="23" viewBox="0 0 27 23" fill="none" xmlns="http://www.w3.org/2000/svg">
<path d="M21.6527 19.929H24.8751C25.0623 19.929 25.2761 19.9822 25.4316 19.9095C25.6894 19.7899 26.028 19.6323 26.1109 19.4083C26.1938 19.1842 26.0945 18.7689 25.9186 18.596C23.1933 15.9158 22.067 12.5276 21.7243 8.85609C21.5289 6.77429 21.622 4.66181 21.5964 2.56978C21.5841 1.75139 21.356 1.50894 20.5305 1.50382C19.3888 1.49666 18.2461 1.49359 17.1045 1.48541C17.0738 1.48541 17.0441 1.46086 16.9807 1.43324C16.8569 0.880818 17.1443 -0.0183945 16.152 0.00104237C15.2109 0.0194563 15.4615 0.871611 15.3684 1.47211H11.5946C11.5046 0.87468 11.7685 -0.00918736 10.7875 0.00206559C9.85244 0.0112725 10.0642 0.845013 10.0171 1.46904H6.18602C6.05713 0.886956 6.36505 -0.0654526 5.2909 0.00718009C4.4275 0.0695828 4.64949 0.85422 4.58504 1.47416C4.40499 1.48439 4.22699 1.5028 4.04797 1.5028C3.0086 1.5028 1.96822 1.49666 0.92783 1.5028C0.269022 1.50996 0.00713539 1.78515 0.00713539 2.44907C0.00713539 8.97987 0.00713539 15.511 0.00713539 22.0425C0.00713539 22.7504 0.285389 22.9939 1.08128 22.9939C6.38449 22.9939 11.687 22.9939 16.9889 22.9939C18.1827 22.9939 19.3765 22.9939 20.5693 22.9939C21.355 22.9939 21.5923 22.7402 21.5923 21.9433C21.5923 21.3295 21.5951 20.7157 21.6005 20.1019C21.613 20.0429 21.6305 19.985 21.6527 19.929ZM20.0599 7.67555C20.2583 11.5895 21.2629 15.17 23.6598 18.3894H23.0399C17.4325 18.3894 11.8251 18.3924 6.21774 18.3986C6.03391 18.4079 5.85053 18.3728 5.68315 18.2962C5.51576 18.2196 5.36929 18.1039 5.25612 17.9587C3.37381 15.7797 2.35388 13.212 1.85262 10.4172C1.69201 9.52308 1.62551 8.61159 1.51196 7.67555H20.0599ZM10.009 3.07207C10.0724 3.69303 9.84425 4.50427 10.7486 4.54212C11.7716 4.57997 11.5056 3.67359 11.5864 3.08026H15.3582C15.4677 3.67053 15.2078 4.5012 16.1142 4.54416C17.1474 4.59327 16.8456 3.65825 16.9919 3.07821H20.0271V6.06536H1.57232V3.07207H4.58708C4.64948 3.68587 4.41522 4.5237 5.34921 4.54416C6.33743 4.56565 6.08168 3.68689 6.17375 3.07207H10.009ZM20.0343 21.4174H1.56618V15.0473C1.6204 15.0902 1.65416 15.1035 1.66848 15.1281C1.73088 15.2488 1.78817 15.3726 1.8475 15.4943C2.54109 16.9101 3.38199 18.2226 4.46944 19.3755C4.84795 19.7776 5.26635 19.9413 5.82388 19.9392C10.3414 19.9218 14.859 19.929 19.3765 19.929H20.0374L20.0343 21.4174Z" fill="#1B76FE"/>
</svg>
