<svg width="18" height="18" viewBox="0 0 18 18" fill="none" xmlns="http://www.w3.org/2000/svg">
<g id="Layer_1" clip-path="url(#clip0_1_738)">
<path id="Vector" d="M0.00146508 5.28096C-0.011203 4.52694 0.22175 3.88144 0.789 3.35996C1.20283 2.97872 1.58428 2.56225 1.98895 2.17185C2.65544 1.52846 3.33248 1.52494 3.99756 2.17185C4.68492 2.84413 5.36525 3.52533 6.03853 4.21546C6.70924 4.90818 6.70361 5.55438 6.03361 6.24709C5.65075 6.64454 5.25944 7.03565 4.86039 7.41336C4.6563 7.60645 4.63659 7.78192 4.76187 8.03279C5.62471 9.76352 6.92882 11.1137 8.43703 12.2758C8.92546 12.6521 9.49271 12.929 10.0177 13.2539C10.2085 13.3716 10.3605 13.3356 10.5146 13.1756C10.9059 12.7712 11.3042 12.3723 11.7054 11.9777C12.4176 11.2772 13.0771 11.273 13.7858 11.9706C14.4544 12.6283 15.1181 13.2919 15.7768 13.9614C16.4693 14.6661 16.463 15.3405 15.7691 16.0487C15.4172 16.4088 15.0413 16.7534 14.7063 17.1262C14.0427 17.8717 13.2143 18.0754 12.2579 17.9676C10.9024 17.8146 9.68132 17.284 8.51233 16.6286C5.06379 14.695 2.47245 11.9509 0.809411 8.35202C0.353358 7.38588 0.0141332 6.37464 0.00146508 5.28096Z" fill="#1B76FE"/>
<path id="Vector_2" d="M18 8.42887L16.667 8.65296C15.7084 4.59463 13.21 2.16484 9.11609 1.32414C9.14354 1.11273 9.1731 0.887233 9.20406 0.658912C9.23503 0.430591 9.26599 0.220591 9.29626 0.00213623C13.1994 0.389013 17.2265 3.69614 18 8.42887Z" fill="#1B76FE"/>
<path id="Vector_3" d="M14.3369 8.66917L12.9997 8.89679C12.4803 6.69885 11.1255 5.39305 8.92334 4.93711C8.98598 4.48752 9.0465 4.05131 9.10632 3.61652C11.3493 3.73068 13.9681 5.86026 14.3369 8.66917Z" fill="#1B76FE"/>
</g>
<defs>
<clipPath id="clip0_1_738">
<rect width="18" height="18" fill="white"/>
</clipPath>
</defs>
</svg>
